<?xml version="1.0" encoding="utf-8"?>
<svg role="img" viewBox="0 0 26 26" xmlns="http://www.w3.org/2000/svg" xmlns:bx="https://boxy-svg.com" preserveAspectRatio="xMinYMid" width="26px" height="26px"><defs><bx:export><bx:file format="svg" path="Bluesky.svg"/></bx:export></defs><title>Bluesky</title><path d="M 14 12.766 C 12.913 10.652 9.954 6.713 7.202 4.771 C 4.566 2.91 3.561 3.232 2.902 3.531 C 2.139 3.874 2 5.046 2 5.734 C 2 6.424 2.378 11.384 2.624 12.213 C 3.439 14.949 6.337 15.873 9.007 15.577 C 9.143 15.557 9.282 15.538 9.422 15.521 C 9.284 15.543 9.146 15.561 9.007 15.577 C 5.095 16.157 1.62 17.582 6.177 22.655 C 11.19 27.845 13.047 21.542 14 18.347 C 14.953 21.542 16.05 27.618 21.733 22.655 C 26 18.347 22.905 16.157 18.993 15.577 C 18.854 15.561 18.716 15.543 18.578 15.521 C 18.718 15.538 18.857 15.557 18.993 15.577 C 21.663 15.874 24.561 14.949 25.376 12.213 C 25.622 11.385 26 6.423 26 5.735 C 26 5.045 25.861 3.874 25.098 3.529 C 24.439 3.231 23.434 2.909 20.798 4.769 C 18.046 6.714 15.087 10.653 14 12.766 Z"/><path d="M 13 11.8 C 11.913 9.686 8.954 5.747 6.202 3.805 C 3.566 1.944 2.561 2.266 1.902 2.565 C 1.139 2.908 1 4.08 1 4.768 C 1 5.458 1.378 10.418 1.624 11.247 C 2.439 13.983 5.337 14.907 8.007 14.611 C 8.143 14.591 8.282 14.572 8.422 14.555 C 8.284 14.577 8.146 14.595 8.007 14.611 C 4.095 15.191 0.62 16.616 5.177 21.689 C 10.19 26.879 12.047 20.576 13 17.381 C 13.953 20.576 15.05 26.652 20.733 21.689 C 25 17.381 21.905 15.191 17.993 14.611 C 17.854 14.595 17.716 14.577 17.578 14.555 C 17.718 14.572 17.857 14.591 17.993 14.611 C 20.663 14.908 23.561 13.983 24.376 11.247 C 24.622 10.419 25 5.457 25 4.769 C 25 4.079 24.861 2.908 24.098 2.563 C 23.439 2.265 22.434 1.943 19.798 3.803 C 17.046 5.748 14.087 9.687 13 11.8 Z" style="fill: rgb(255, 255, 255);"/></svg>