<?xml version="1.0" encoding="utf-8"?>
<svg viewBox="0 0 26 26" xmlns="http://www.w3.org/2000/svg" xmlns:bx="https://boxy-svg.com">
  <defs>
    <filter id="drop-shadow-filter-0" color-interpolation-filters="sRGB" x="-50%" y="-50%" width="200%" height="200%" bx:preset="drop-shadow 1 1 1 0 0.5 #000">
      <feGaussianBlur in="SourceAlpha" stdDeviation="0"/>
      <feOffset dx="1" dy="1"/>
      <feComponentTransfer result="offsetblur">
        <feFuncA id="spread-ctrl" type="linear" slope="1"/>
      </feComponentTransfer>
      <feFlood flood-color="#000"/>
      <feComposite in2="offsetblur" operator="in"/>
      <feMerge>
        <feMergeNode/>
        <feMergeNode in="SourceGraphic"/>
      </feMerge>
    </filter>
  </defs>
  <path d="M 21.317 5.37 C 19.761 4.656 18.119 4.146 16.432 3.855 C 16.4 3.849 16.369 3.864 16.353 3.892 C 16.142 4.267 15.909 4.757 15.745 5.141 C 13.9 4.865 12.065 4.865 10.258 5.141 C 10.095 4.748 9.853 4.267 9.641 3.892 C 9.625 3.864 9.593 3.85 9.562 3.855 C 7.875 4.146 6.233 4.655 4.677 5.37 C 4.664 5.375 4.652 5.385 4.645 5.397 C 1.533 10.046 0.681 14.58 1.099 19.058 C 1.102 19.08 1.113 19.1 1.13 19.114 C 3.183 20.622 5.172 21.537 7.123 22.143 C 7.154 22.153 7.188 22.142 7.208 22.116 C 7.669 21.485 8.081 20.821 8.434 20.122 C 8.454 20.081 8.435 20.031 8.392 20.016 C 7.739 19.768 7.118 19.466 6.52 19.124 C 6.472 19.096 6.468 19.029 6.512 18.996 C 6.638 18.902 6.764 18.804 6.884 18.704 C 6.906 18.686 6.936 18.682 6.962 18.694 C 10.889 20.487 15.142 20.487 19.023 18.694 C 19.049 18.682 19.079 18.685 19.101 18.703 C 19.222 18.802 19.347 18.902 19.474 18.996 C 19.518 19.029 19.514 19.095 19.468 19.123 C 18.869 19.473 18.243 19.771 17.595 20.015 C 17.552 20.031 17.533 20.081 17.554 20.122 C 17.914 20.82 18.326 21.484 18.779 22.115 C 18.798 22.141 18.832 22.153 18.863 22.143 C 20.824 21.537 22.813 20.621 24.865 19.114 C 24.883 19.101 24.895 19.081 24.897 19.059 C 25.397 13.882 24.059 9.385 21.348 5.398 C 21.342 5.385 21.33 5.375 21.317 5.37 Z M 9.02 16.331 C 7.837 16.331 6.863 15.246 6.863 13.912 C 6.863 12.579 7.819 11.493 9.02 11.493 C 10.231 11.493 11.196 12.589 11.177 13.912 C 11.177 15.246 10.221 16.331 9.02 16.331 Z M 16.995 16.331 C 15.812 16.331 14.838 15.246 14.838 13.912 C 14.838 12.579 15.793 11.493 16.995 11.493 C 18.206 11.493 19.171 12.589 19.152 13.912 C 19.152 15.246 18.206 16.331 16.995 16.331 Z" style="fill: rgb(255, 255, 255); filter: url('#drop-shadow-filter-0');"/>
</svg>