<?xml version="1.0" encoding="utf-8"?>
<svg viewBox="0 0 26 26" fill="white" xmlns="http://www.w3.org/2000/svg">
  <defs>
    <filter id="drop-shadow-filter-0" color-interpolation-filters="sRGB" x="-50%" y="-50%" width="200%" height="200%">
      <title>Drop shadow</title>
      <title>Drop shadow</title>
      <feGaussianBlur in="SourceAlpha" stdDeviation="0"/>
      <feOffset dx="1" dy="1"/>
      <feComponentTransfer result="offsetblur">
        <feFuncA id="spread-ctrl" type="linear" slope="1"/>
      </feComponentTransfer>
      <feFlood flood-color="rgb(0,0,0)"/>
      <feComposite in2="offsetblur" operator="in"/>
      <feMerge>
        <feMergeNode/>
        <feMergeNode in="SourceGraphic"/>
      </feMerge>
    </filter>
  </defs>
  <path d="M 13 1.5 C 6.37 1.5 1 6.779 1 13.291 C 1 18.503 4.438 22.922 9.205 24.48 C 9.805 24.591 10.025 24.226 10.025 23.912 C 10.025 23.632 10.016 22.891 10.009 21.908 C 6.671 22.619 5.968 20.325 5.968 20.325 C 5.422 18.965 4.632 18.601 4.632 18.601 C 3.546 17.869 4.717 17.885 4.717 17.885 C 5.922 17.968 6.554 19.099 6.554 19.099 C 7.625 20.902 9.363 20.382 10.05 20.079 C 10.159 19.317 10.466 18.798 10.81 18.503 C 8.146 18.208 5.344 17.194 5.344 12.676 C 5.344 11.389 5.808 10.337 6.578 9.511 C 6.444 9.214 6.039 8.015 6.684 6.391 C 6.684 6.391 7.69 6.074 9.983 7.599 C 10.943 7.337 11.964 7.207 12.983 7.202 C 14.004 7.207 15.023 7.337 15.983 7.599 C 18.263 6.074 19.269 6.391 19.269 6.391 C 19.914 8.015 19.509 9.214 19.389 9.511 C 20.154 10.337 20.618 11.389 20.618 12.676 C 20.618 17.206 17.815 18.203 15.143 18.493 C 15.564 18.847 15.954 19.57 15.954 20.674 C 15.954 22.253 15.938 23.52 15.938 23.904 C 15.938 24.213 16.149 24.581 16.764 24.463 C 21.565 22.917 25 18.495 25 13.291 C 25 6.779 19.627 1.5 13 1.5" style="filter: url('#drop-shadow-filter-0');"/>
</svg>